<?xml version="1.0" standalone="no"?>
<!DOCTYPE svg PUBLIC "-//W3C//DTD SVG 20010904//EN"
 "http://www.w3.org/TR/2001/REC-SVG-20010904/DTD/svg10.dtd">
<svg version="1.0" xmlns="http://www.w3.org/2000/svg"
 width="1024.000000pt" height="1024.000000pt" viewBox="0 0 1024.000000 1024.000000"
 preserveAspectRatio="xMidYMid meet">
<metadata>
Created by potrace 1.11, written by Peter Selinger 2001-2013
</metadata>
<g transform="translate(0.000000,1024.000000) scale(0.100000,-0.100000)"
fill="#000000" stroke="none">
<path d="M523 10230 c-61 -13 -131 -38 -188 -68 -67 -36 -79 -46 -155 -122
-77 -78 -130 -173 -159 -285 l-21 -80 1 -4555 c1 -3844 3 -4565 14 -4619 8
-35 33 -103 57 -150 81 -164 245 -293 428 -335 58 -14 584 -16 4620 -16 4046
0 4562 2 4620 16 183 42 346 170 428 334 77 153 70 -285 71 4770 1 4049 -1
4562 -15 4620 -43 184 -173 350 -336 429 -48 23 -115 48 -150 56 -53 11 -794
13 -4618 13 -2505 0 -4574 -4 -4597 -8z"/>
</g>
</svg>
